<?xml version="1.0" encoding="UTF-8"?>
<svg id="Camada_1" data-name="Camada 1" xmlns="http://www.w3.org/2000/svg" viewBox="0 0 850.39 453.54">
  <defs>
    <style>
      .cls-1, .cls-2, .cls-3 {
        stroke-width: 0px;
      }

      .cls-1, .cls-3 {
        fill: #e30613;
      }

      .cls-2 {
        fill: #0d181c;
      }

      .cls-3 {
        fill-rule: evenodd;
      }
    </style>
  </defs>
  <path class="cls-2" d="M155.51,343.81c2.18.06,3.69.12,4.48.48,1.15.54,1.94,1.88,1.94,3.14,0,1.69-1.45,3.15-3.15,3.75-1.09.36-1.94.48-4.17.42l.91-7.8ZM167.91,358.32c3.81-1.63,6.47-2.9,8.1-6.83.42-.91,1.03-2.6,1.03-5.14,0-4.96-2.66-9.5-7.02-11.85-1.63-.91-2.84-1.15-4.54-1.57-4.23-.54-5.44-.54-7.8-.54-2.12,0-4.23.06-6.35.12-3.21.12-6.41.06-9.62,0l-5.38,42.46h15.54l1.81-14.76,5.5,14.76h16.57l-7.86-16.63Z"/>
  <path class="cls-2" d="M200.31,359.77c.54-1.56,1.03-3.14,1.63-4.65,1.33-3.5,1.94-4.22,3.45-10.26l1.09,14.91h-6.17ZM197.7,332.5l-19.72,42.46h16.45l2.24-5.5h10.52l.48,5.56h15.18l-5.99-42.52h-19.17Z"/>
  <polygon class="cls-2" points="233.67 332.5 228.23 374.96 243.95 374.96 249.09 332.5 233.67 332.5"/>
  <path class="cls-2" d="M258.81,332.5l-5.38,42.46h15.18l2.36-22.02,10.58,22.08h15.24l5.26-42.52h-15.12l-2.42,21.96c-1.33-3.15-2.6-6.23-4.05-9.25-1.94-4.29-4.11-8.47-6.23-12.64l-15.42-.06Z"/>
  <polygon class="cls-2" points="311.83 332.56 306.51 375.02 322.24 375.02 324.05 359.65 333.49 359.65 331.61 375.02 347.34 375.02 352.6 332.5 336.87 332.5 335.12 347.07 325.74 347.07 327.38 332.56 311.83 332.56"/>
  <path class="cls-2" d="M374.23,359.77c.54-1.56,1.03-3.14,1.63-4.65,1.33-3.5,1.94-4.22,3.45-10.26l1.09,14.91h-6.17ZM371.63,332.5l-19.72,42.46h16.45l2.24-5.5h10.52l.48,5.56h15.18l-5.99-42.52h-19.17Z"/>
  <path class="cls-2" d="M439.07,345.08c.18,0,2-.06,3.27.24,3.57.91,5.56,3.99,5.62,7.62,0,2.6-1.03,4.54-1.51,5.32-1.69,2.72-3.87,3.69-6.83,4.11-.97.18-1.87.24-2.78.3l2.24-17.6ZM439.61,374.96c3.51-.12,6.11-.3,9.44-1.45,5.81-2.06,10.4-6.47,12.64-12.34,1.45-3.69,1.63-7.08,1.63-8.59,0-7.44-3.27-11.98-5.2-14.03-3.02-3.21-5.99-4.11-10.16-5.32-2.42-.3-4.78-.54-7.2-.67-2.3-.12-4.66-.06-6.96,0-2.84.06-5.69,0-8.53,0l-5.44,42.4h19.78Z"/>
  <path class="cls-2" d="M483.8,359.77c.54-1.56,1.03-3.14,1.63-4.65,1.33-3.5,1.94-4.22,3.45-10.26l1.09,14.91h-6.17ZM481.2,332.5l-19.72,42.46h16.45l2.24-5.5h10.52l.48,5.56h15.18l-5.99-42.52h-19.17Z"/>
  <path class="cls-2" d="M547.11,335.76c-2.42-1.27-7.74-4.42-15.24-4.42-9.07,0-14.09,4.66-16.03,7.74-1.94,3.08-2.12,5.99-2.12,7.38,0,3.75,1.39,5.99,2.36,7.08,1.39,1.63,4.17,3.39,6.11,4.11.79.24,1.63.48,2.48.73.67.18,1.33.42,2,.67,1.15.42,2.06.42,2.72,1.69.36.6.36,1.03.42,1.33,0,1.63-2.3,2.24-3.87,2.3-1.39,0-2.84-.48-3.21-.6-2.84-.79-4.29-1.88-5.32-2.72-.6-.48-1.21-1.03-1.81-1.57l-5.81,11.37c4.05,2.3,7.2,3.99,11.85,4.84,2,.42,4.11.48,4.78.48,6.59,0,11.07-2.6,13.12-4.17,5.08-3.93,5.75-9.07,5.75-11.43s-.54-7.98-6.53-10.77c-1.57-.67-3.33-1.15-3.81-1.27-.79-.24-1.57-.54-2.42-.73-1.69-.48-2.18-.48-2.84-1.39-.12-.12-.42-.67-.42-1.21,0-1.33,1.81-2.06,3.21-2.06,1.75,0,5.14,1.03,6.77,2.06.85.54,1.45,1.09,2.18,1.75l5.69-11.19Z"/>
  <path class="cls-2" d="M603.78,335.76c-2.42-1.27-7.74-4.42-15.24-4.42-9.07,0-14.09,4.66-16.03,7.74-1.94,3.08-2.12,5.99-2.12,7.38,0,3.75,1.39,5.99,2.36,7.08,1.39,1.63,4.17,3.39,6.11,4.11.79.24,1.63.48,2.48.73.67.18,1.33.42,2,.67,1.15.42,2.06.42,2.72,1.69.36.6.36,1.03.42,1.33,0,1.63-2.3,2.24-3.87,2.3-1.39,0-2.84-.48-3.21-.6-2.84-.79-4.29-1.88-5.32-2.72-.6-.48-1.21-1.03-1.81-1.57l-5.81,11.37c4.05,2.3,7.2,3.99,11.85,4.84,2,.42,4.11.48,4.78.48,6.59,0,11.07-2.6,13.13-4.17,5.08-3.93,5.75-9.07,5.75-11.43s-.54-7.98-6.53-10.77c-1.57-.67-3.33-1.15-3.81-1.27-.79-.24-1.57-.54-2.42-.73-1.69-.48-2.18-.48-2.84-1.39-.12-.12-.42-.67-.42-1.21,0-1.33,1.81-2.06,3.21-2.06,1.75,0,5.14,1.03,6.77,2.06.85.54,1.45,1.09,2.18,1.75l5.69-11.19Z"/>
  <polygon class="cls-2" points="612.71 332.5 607.27 375.02 635.51 375.02 637.09 363.46 624.08 363.46 624.63 358.75 636.12 358.75 637.45 348.16 625.9 348.16 626.56 343.56 639.14 343.56 640.53 332.5 612.71 332.5"/>
  <polygon class="cls-2" points="645.41 332.62 643.78 345.8 651.1 345.8 647.41 375.02 663.07 375.02 666.7 345.8 673.48 345.8 675.05 332.62 645.41 332.62"/>
  <polygon class="cls-2" points="680.77 332.5 675.33 375.02 703.58 375.02 705.15 363.46 692.14 363.46 692.69 358.75 704.18 358.75 705.51 348.16 693.96 348.16 694.62 343.56 707.2 343.56 708.6 332.5 680.77 332.5"/>
  <g>
    <path class="cls-2" d="M769.7,146.06c0-2.41-1.95-4.36-4.36-4.36h-3.27c-.6,0-1.09.49-1.09,1.09v10.9c0,.6.49,1.09,1.09,1.09s1.09-.49,1.09-1.09v-3.27h1.64l2.94,3.92c.17.23.43.38.72.43.29.04.58-.03.81-.21.23-.17.38-.43.43-.72.04-.29-.03-.58-.21-.81l-2.28-3.04c1.47-.7,2.49-2.2,2.49-3.94ZM765.34,148.24h-2.18v-4.36h2.18c1.2,0,2.18.98,2.18,2.18s-.98,2.18-2.18,2.18Z"/>
    <path class="cls-2" d="M770.77,135.15c-5.3-2.19-11.39-.98-15.45,3.07-4.05,4.05-5.27,10.15-3.07,15.45,2.19,5.3,7.36,8.75,13.09,8.75,7.82,0,14.16-6.35,14.17-14.17,0-5.73-3.45-10.9-8.75-13.09ZM769.93,159.32c-4.48,1.86-9.64.83-13.07-2.6-3.43-3.43-4.46-8.59-2.6-13.07,1.86-4.48,6.23-7.4,11.08-7.4,6.62,0,11.98,5.37,11.99,11.99,0,4.85-2.92,9.22-7.4,11.08Z"/>
  </g>
  <g>
    <circle class="cls-1" cx="425.2" cy="91.55" r="14.17" transform="translate(-8.29 127.14) rotate(-16.84)"/>
    <path class="cls-3" d="M413.84,108.67l-40.55,75.73c-13.19-14.03-26.23-37.22-26.23-37.22-10.65-17.53-18.83-38.55-21.23-44.95,2.98-2.6,4.88-6.41,4.88-10.68,0-7.83-6.35-14.17-14.17-14.17s-14.17,6.35-14.17,14.17,6.35,14.17,14.17,14.17c.22,0,.43-.02.64-.03-.11,2.92-.18,5.89-.21,8.92-.04,4.98.06-4.31.06,2.47,0,49.02,11.86,82.29,30.97,102.96,16.84,18.21,39.98,27.09,65.85,28.65v-3.37s0-136.65,0-136.65Z"/>
    <path class="cls-3" d="M141.72,275.8h133.81c-51.43-26.49-86.71-75.07-89.4-159.71l-36.71,67.41-44.64-78.92c5.06-2.16,8.6-7.18,8.6-13.03,0-7.83-6.35-14.17-14.17-14.17s-14.17,6.35-14.17,14.17c0,6.5,4.38,11.97,10.35,13.64,13.78,31.83,29.74,86.64,29.74,86.64,13.43,44.74,16.59,83.97,16.59,83.97Z"/>
    <path class="cls-3" d="M204.34,105.26c0,.1,0,.21,0,.31,0,73.79,25.12,118.6,63.9,144.68,17.46,11.74,37.82,19.98,60.05,25.55h85.56v-8.51c-63.93-3.95-116.11-47.5-115.26-152.83,0-.2,0-.39,0-.59-2.07,3.67-38.32,67.96-39.64,69.3-1.36,1.37-24.71-36-26.53-40.42,0,0-12.26-22.34-17.02-39.21,3.99-2.51,6.64-6.93,6.64-11.99,0-7.83-6.35-14.17-14.17-14.17s-14.17,6.35-14.17,14.17c0,6.6,4.52,12.14,10.64,13.71Z"/>
    <rect class="cls-1" x="141.72" y="289.98" width="272.13" height="28.35"/>
    <path class="cls-3" d="M436.54,245.32v3.37c25.87-1.56,49-10.44,65.84-28.65,19.11-20.67,30.97-53.94,30.97-102.96,0-6.79.1,2.51.06-2.47-.02-3.03-.1-6-.21-8.92.21,0,.42.03.64.03,7.83,0,14.17-6.35,14.17-14.17s-6.35-14.17-14.17-14.17-14.17,6.35-14.17,14.17c0,4.27,1.89,8.08,4.88,10.68-2.4,6.39-10.58,27.42-21.23,44.95,0,0-13.04,23.19-26.23,37.22l-40.55-75.73v136.65Z"/>
    <path class="cls-3" d="M436.54,267.3v8.51h85.56c22.23-5.57,42.59-13.81,60.05-25.55,38.78-26.08,63.9-70.88,63.9-144.68,0-.1,0-.21,0-.31,6.11-1.57,10.64-7.11,10.64-13.71,0-7.83-6.35-14.17-14.17-14.17s-14.17,6.35-14.17,14.17c0,5.06,2.66,9.48,6.64,11.99-4.76,16.88-17.02,39.21-17.02,39.21-1.82,4.42-25.16,41.79-26.53,40.42-1.33-1.33-37.58-65.63-39.64-69.3,0,.2,0,.39,0,.59.86,105.33-51.33,148.88-115.26,152.83Z"/>
    <path class="cls-3" d="M765.34,91.55c0-7.83-6.35-14.17-14.17-14.17s-14.17,6.35-14.17,14.17c0,5.85,3.54,10.87,8.6,13.03l-44.64,78.92-36.71-67.41c-2.69,84.64-37.96,133.22-89.4,159.71h133.81s3.16-39.23,16.59-83.97c0,0,15.96-54.81,29.74-86.64,5.97-1.67,10.35-7.14,10.35-13.64Z"/>
    <rect class="cls-1" x="436.54" y="289.98" width="272.13" height="28.35"/>
  </g>
</svg>